<svg aria-hidden="true" style="position: absolute; width: 0; height: 0; overflow: hidden;" version="1.1" xmlns="http://www.w3.org/2000/svg" xmlns:xlink="http://www.w3.org/1999/xlink">
<defs>
<symbol id="icon-Shape-1" viewBox="0 0 42 32">
<path d="M15.074 0.23c-0.218 0.025-0.437 0.050-0.659 0.021 0.298-0.048 0.601-0.063 0.902-0.046-0.081 0.006-0.162 0.016-0.244 0.025zM14.409 0.25l-0.113-0.020c0.696-0.099 1.402-0.115 2.102-0.047 0.991 0.105 1.962 0.355 2.88 0.742 0.899 0.381 1.77 0.825 2.606 1.329 1.227 0.726 2.462 1.435 3.761 2.027 1.067 0.494 2.221 0.773 3.395 0.82 0.467 0.017 0.933 0.027 1.412 0.009-0.028 0.051-0.065 0.052-0.108 0.053-0.032 0.001-0.067 0.002-0.103 0.025 0.045-0.002 0.091-0 0.134 0.002 0.089 0.004 0.168 0.007 0.214-0.030 0.072-0.070 0.177-0.094 0.273-0.064 0.207 0.097 0.411 0.064 0.614 0.032 0.092-0.015 0.185-0.029 0.277-0.032 0.113-0.003 0.223-0.033 0.333-0.063 0.118-0.033 0.238-0.065 0.363-0.065 0.1 0 0.199-0.007 0.298-0.015 0.207-0.015 0.414-0.031 0.626 0.022 0.141 0.035 0.314-0.019 0.473-0.070 0.147-0.048 0.339-0.071 0.474-0.015 0.139 0.059 0.276 0.050 0.413 0.042h0c0.085-0.005 0.169-0.011 0.254 0 0.543 0.063 1.082 0.159 1.614 0.287 0.754 0.197 1.485 0.472 2.182 0.822 1.163 0.569 1.943 1.5 2.493 2.643 0.551 1.145 0.632 2.316 0.153 3.511l-0.009 0.024c-0.249 0.622-0.499 1.243-0.802 1.84-0.194 0.389-0.437 0.75-0.724 1.076-0.24 0.267-0.385 0.586-0.53 0.905l-0 0c-0.011 0.025-0.023 0.050-0.034 0.076-0.414 0.906-0.915 1.756-1.597 2.489-0.689 0.74-1.515 1.291-2.422 1.722-1.207 0.572-2.494 0.852-3.807 1.049l-0.077 0.012c-1.863 0.28-3.728 0.561-5.519 1.182-1.28 0.444-2.51 0.989-3.611 1.795-0.487 0.356-0.875 0.806-1.244 1.279-0.234 0.299-0.461 0.604-0.688 0.908-0.405 0.543-0.811 1.087-1.253 1.601-0.496 0.576-1.009 1.138-1.619 1.598-1.069 0.807-2.22 1.466-3.517 1.822-1.39 0.381-2.796 0.51-4.208 0.091-1.344-0.398-2.457-1.111-3.139-2.379-0.373-0.694-0.519-1.456-0.564-2.234-0.040-0.703-0.046-1.407-0.052-2.111v0-0c-0.006-0.728-0.012-1.456-0.056-2.183-0.010-0.167-0.019-0.334-0.028-0.502-0.044-0.803-0.087-1.605-0.255-2.395-0.248-1.166-0.825-2.157-1.616-3.035-0.335-0.371-0.68-0.733-1.025-1.094l-0-0c-0.203-0.213-0.407-0.426-0.608-0.64-0.651-0.696-1.257-1.426-1.71-2.272-0.796-1.486-0.753-2.982-0.047-4.482 0.416-0.87 0.962-1.672 1.618-2.379 0.236-0.259 0.487-0.501 0.738-0.742 0.044-0.042 0.087-0.084 0.131-0.126 0.269-0.26 0.563-0.492 0.878-0.693 0.131-0.083 0.252-0.181 0.374-0.279l0-0c0.112-0.091 0.225-0.182 0.346-0.262 0.912-0.609 1.863-1.157 2.847-1.64 0.591-0.288 1.201-0.531 1.811-0.77 0.488-0.191 0.988-0.353 1.496-0.495 0.124-0.035 0.248-0.071 0.372-0.106 0.295-0.085 0.592-0.171 0.89-0.243 0.118-0.028 0.241-0.034 0.364-0.040 0.114-0.006 0.229-0.011 0.342-0.035 0.467-0.105 0.94-0.175 1.417-0.21 0.048-0.003 0.095-0.009 0.118-0.062zM11.030 31.026l0.009 0.028c0.061-0 0.123 0.001 0.184 0.002 0.135 0.002 0.269 0.005 0.403-0.006 0.049-0.004 0.098-0.008 0.146-0.012 0.585-0.046 1.168-0.092 1.715-0.36 0.070-0.034 0.15-0.052 0.232-0.070 0.1-0.022 0.203-0.045 0.294-0.099 0.112-0.067 0.234-0.108 0.357-0.148 0.125-0.042 0.251-0.083 0.369-0.154 0.362-0.216 0.733-0.423 1.113-0.61 0.169-0.083 0.317-0.193 0.465-0.302v0 0c0.073-0.054 0.145-0.108 0.221-0.158 0.173-0.131 0.339-0.271 0.497-0.42 0.308-0.259 0.594-0.543 0.855-0.85 0.261-0.312 0.51-0.636 0.754-0.963 0.095-0.127 0.188-0.256 0.281-0.385 0.143-0.198 0.285-0.395 0.436-0.587 0.294-0.37 0.564-0.758 0.807-1.162 0.063-0.106 0.144-0.194 0.224-0.281v0c0.073-0.080 0.147-0.159 0.207-0.253 0.102-0.176 0.224-0.339 0.364-0.486 0.263-0.254 0.545-0.489 0.843-0.701 1.002-0.703 2.103-1.209 3.254-1.611 0.055-0.019 0.109-0.039 0.164-0.059v0 0 0 0 0 0 0h0c0.299-0.108 0.6-0.217 0.927-0.226 0.121 0.003 0.241-0.017 0.354-0.062 0.207-0.096 0.428-0.159 0.655-0.186 0.262-0.035 0.521-0.089 0.779-0.143v0c0.211-0.044 0.422-0.088 0.635-0.122 0.769-0.122 1.538-0.236 2.312-0.312 0.216-0.021 0.429-0.056 0.643-0.091h0c0.252-0.041 0.505-0.083 0.762-0.101 0.217-0.016 0.43-0.085 0.642-0.154 0.085-0.027 0.17-0.055 0.255-0.079 1.408-0.399 2.676-1.046 3.67-2.148 0.058-0.064 0.129-0.099 0.2-0.134 0.082-0.040 0.163-0.080 0.22-0.166 0.469-0.714 0.948-1.422 1.457-2.109 0.35-0.473 0.583-1.006 0.817-1.54 0.123-0.281 0.247-0.563 0.387-0.836l0.007-0.014 0.006-0.012 0-0c0.069-0.135 0.073-0.142 0.244-0.229 0.013-0.007 0.020-0.028 0.026-0.049 0.002-0.008 0.005-0.015 0.007-0.022 0.064-0.161 0.133-0.321 0.202-0.481 0.141-0.326 0.281-0.653 0.383-0.994 0.015-0.052 0.032-0.104 0.048-0.156 0.083-0.266 0.166-0.533 0.155-0.816-0.044-1.181-0.581-2.1-1.513-2.797-0.525-0.393-1.121-0.659-1.729-0.896-1.246-0.492-2.582-0.714-3.919-0.651-0.54 0.024-1.078 0.064-1.617 0.103-0.805 0.059-1.61 0.118-2.419 0.126-1.318 0.023-2.627-0.218-3.85-0.709-1.482-0.6-2.869-1.385-4.249-2.182-0.947-0.546-1.911-1.058-2.943-1.427-1.452-0.519-2.942-0.64-4.467-0.439-0.921 0.12-1.832 0.302-2.728 0.547-2.454 0.675-4.762 1.682-6.891 3.090-0.971 0.642-1.861 1.373-2.571 2.305-0.479 0.629-0.91 1.285-1.174 2.038-0.155 0.442-0.245 0.892-0.151 1.36 0.114 0.574 0.331 1.123 0.639 1.62 0.56 0.903 1.29 1.661 2.021 2.42 0.089 0.092 0.178 0.184 0.266 0.277 0.801 0.837 1.586 1.682 2.071 2.765 0.282 0.616 0.475 1.269 0.572 1.94 0.229 1.655 0.215 3.322 0.202 4.988v0l-0.002 0.197c-0.002 0.225-0.009 0.451-0.016 0.676v0c-0.019 0.575-0.037 1.149 0.036 1.723 0.068 0.536 0.191 1.055 0.461 1.529 0.489 0.831 1.252 1.464 2.158 1.791 0.026 0.007 0.051 0.018 0.073 0.034 0.209 0.187 0.466 0.21 0.724 0.234h0c0.026 0.002 0.051 0.005 0.077 0.007 0.018 0.002 0.037 0.003 0.056 0.003 0.061 0.003 0.124 0.005 0.159 0.037 0.090 0.083 0.194 0.077 0.299 0.071 0.086-0.005 0.172-0.010 0.254 0.033 0.045 0.023 0.119 0.013 0.2 0.002 0.065-0.009 0.135-0.019 0.196-0.012l-0.215 0.027zM29.994 5.882c-0.749 0.021-1.499-0.047-2.232-0.205 0.837 0.115 1.683 0.156 2.528 0.121 0.718-0.022 1.434-0.077 2.149-0.132 0.349-0.027 0.697-0.053 1.046-0.076 0.34-0.029 0.683-0.027 1.023 0.004-0.083 0.071-0.168 0.057-0.251 0.042-0.040-0.007-0.080-0.014-0.119-0.011-0.249 0.021-0.498 0.037-0.748 0.052-0.235 0.015-0.471 0.029-0.706 0.048-0.896 0.074-1.793 0.137-2.692 0.156zM11.595 31.694c-0.835-0.039-1.66-0.196-2.452-0.465 0.765 0.359 1.608 0.519 2.452 0.465zM25.594 22.316c-0.926 0.267-1.807 0.671-2.614 1.198 0.849-0.448 1.726-0.836 2.614-1.198zM36.029 19.604c0.736-0.446 1.419-0.953 1.9-1.687-0.567 0.633-1.204 1.199-1.9 1.687zM17.552 1.174v0c-0.798-0.119-1.596-0.237-2.409-0.172 0.896-0.121 1.807-0.049 2.673 0.211-0.087-0.013-0.175-0.026-0.262-0.039l-0.002-0zM12.788 31.64c-0.019-0.020-0.031-0.036-0.041-0.047-0.013-0.016-0.018-0.022-0.022-0.021-0.306 0.059-0.617 0.086-0.928 0.079-0.014-0.003-0.027 0-0.039 0.009s-0.018 0.020-0.020 0.034c-0.005 0.047 0.033 0.057 0.066 0.054 0.248-0.026 0.495-0.053 0.759-0.082h0.001c0.074-0.008 0.149-0.016 0.225-0.025zM22.827 22.555c-0.341 0.142-0.658 0.335-0.94 0.574l0.94-0.574zM31.597 5.235c-0.362-0.045-0.532-0.004-0.584 0.168 0.087-0.158 0.202-0.145 0.322-0.132 0.087 0.010 0.178 0.019 0.262-0.036zM32.263 5.040l0.003-0.026 0.797-0.042 0.001 0.025-0.801 0.042z"></path>
</symbol>
<symbol id="icon-clock" viewBox="0 0 32 32">
<path d="M16 0c-8.836 0-16 7.164-16 16s7.164 16 16 16c8.836 0 16-7.164 16-16s-7.164-16-16-16zM16 2.667c7.352 0 13.333 5.981 13.333 13.333s-5.981 13.333-13.333 13.333c-7.352 0-13.333-5.981-13.333-13.333s5.981-13.333 13.333-13.333zM17.333 8v8h6.667v2.667h-9.333v-10.667h2.667z"></path>
</symbol>
<symbol id="icon-instagram" viewBox="0 0 32 32">
<path fill="#fff" style="fill: var(--color1, #fff)" d="M16 0c-4.347 0-4.888 0.019-6.597 0.099-5.813 0.267-9.040 3.491-9.307 9.304-0.077 1.709-0.096 2.253-0.096 6.597 0 4.347 0.019 4.891 0.096 6.597 0.267 5.811 3.493 9.040 9.307 9.307 1.709 0.077 2.251 0.096 6.597 0.096s4.891-0.019 6.6-0.096c5.803-0.267 9.043-3.491 9.304-9.307 0.077-1.707 0.096-2.251 0.096-6.597 0-4.344-0.019-4.888-0.096-6.597-0.261-5.805-3.491-9.040-9.304-9.304-1.709-0.080-2.253-0.099-6.6-0.099zM16 2.885c4.272 0 4.779 0.016 6.467 0.093 4.339 0.197 6.36 2.253 6.56 6.557 0.075 1.688 0.091 2.192 0.091 6.464s-0.016 4.779-0.091 6.464c-0.2 4.301-2.219 6.363-6.56 6.56-1.688 0.075-2.192 0.093-6.467 0.093-4.272 0-4.779-0.016-6.464-0.093-4.347-0.2-6.36-2.264-6.56-6.56-0.075-1.685-0.093-2.192-0.093-6.464s0.019-4.779 0.093-6.464c0.197-4.307 2.219-6.363 6.56-6.56 1.685-0.077 2.192-0.091 6.464-0.091zM7.784 16c0-4.539 3.68-8.216 8.216-8.216s8.216 3.68 8.216 8.216c0 4.539-3.68 8.216-8.216 8.216s-8.216-3.677-8.216-8.216zM16 21.333c-2.947 0-5.333-2.387-5.333-5.333 0-2.944 2.387-5.333 5.333-5.333 2.944 0 5.336 2.387 5.336 5.333s-2.392 5.333-5.336 5.333zM22.619 7.461c0-1.061 0.861-1.92 1.92-1.92 1.064 0 1.923 0.859 1.923 1.92s-0.861 1.92-1.923 1.92c-1.061 0-1.92-0.861-1.92-1.92z"></path>
</symbol>
<symbol id="icon-twitter" viewBox="0 0 39 32">
<path fill="#fff" style="fill: var(--color1, #fff)" d="M39.385 3.791c-1.447 0.643-3.006 1.077-4.641 1.273 1.67-1.001 2.947-2.583 3.554-4.47-1.562 0.926-3.292 1.598-5.133 1.959-1.47-1.572-3.574-2.553-5.894-2.553-5.219 0-9.052 4.867-7.874 9.922-6.712-0.338-12.669-3.554-16.653-8.441-2.117 3.63-1.096 8.382 2.501 10.788-1.323-0.043-2.567-0.407-3.656-1.011-0.089 3.742 2.596 7.244 6.482 8.025-1.136 0.309-2.383 0.381-3.65 0.138 1.027 3.21 4.017 5.543 7.549 5.609-3.404 2.665-7.68 3.857-11.97 3.351 3.577 2.294 7.821 3.63 12.383 3.63 15.006 0 23.48-12.672 22.968-24.038 1.582-1.136 2.951-2.56 4.034-4.181z"></path>
</symbol>
<symbol id="icon-facebook" viewBox="0 0 20 32">
<path fill="#fff" style="fill: var(--color1, #fff)" d="M5.333 10.667h-5.333v5.333h5.333v16h8v-16h4.853l0.48-5.333h-5.333v-2.221c0-1.275 0.256-1.779 1.488-1.779h3.845v-6.667h-6.411c-4.795 0-6.923 2.112-6.923 6.155v4.512z"></path>
</symbol>
<symbol id="icon-BKR_logo" viewBox="0 0 113 32">
<path fill="#fff" style="fill: var(--color1, #fff)" d="M34.167 7.892c0 4.444-2.312 6.875-6.938 7.292v0.229c2.417 0.056 4.319 0.715 5.708 1.979s2.083 3.090 2.083 5.479c0 1-0.118 1.986-0.354 2.958-0.236 0.958-0.75 1.813-1.542 2.563-0.778 0.75-1.91 1.361-3.396 1.833-1.472 0.472-3.458 0.708-5.958 0.708h-22.917v-7.729c1.222 0 2.097-0.16 2.625-0.479 0.528-0.333 0.792-0.951 0.792-1.854v-10.542c0-0.917-0.264-1.535-0.792-1.854-0.528-0.333-1.403-0.5-2.625-0.5v-7.729h24.354c1.917 0 3.465 0.215 4.646 0.646s2.090 1 2.729 1.708c0.639 0.708 1.063 1.528 1.271 2.458 0.208 0.917 0.312 1.861 0.312 2.833zM19.667 23.204c1.167 0 1.972-0.222 2.417-0.667 0.444-0.458 0.667-1.215 0.667-2.271s-0.222-1.819-0.667-2.292c-0.444-0.486-1.25-0.729-2.417-0.729h-3.104v5.958h3.104zM16.562 13.558h3.146c0.861 0 1.479-0.271 1.854-0.812 0.389-0.556 0.583-1.222 0.583-2 0-0.736-0.194-1.382-0.583-1.937-0.375-0.556-0.993-0.833-1.854-0.833h-3.146v5.583zM52.438 13.058l4.125-2.563c0.514-0.278 0.847-0.563 1-0.854 0.167-0.306 0.208-0.576 0.125-0.813-0.069-0.25-0.25-0.451-0.542-0.604-0.278-0.167-0.597-0.25-0.958-0.25v-7.729h16.812v7.729c-0.889 0-1.667 0.097-2.333 0.292-0.667 0.181-1.41 0.514-2.229 1l-4.313 2.542 7 9.063c0.25 0.361 0.493 0.687 0.729 0.979 0.25 0.278 0.514 0.521 0.792 0.729 0.292 0.194 0.625 0.347 1 0.458 0.389 0.111 0.868 0.167 1.437 0.167v7.729h-18.896v-7.729c0.597 0 1.028-0.083 1.292-0.25 0.278-0.167 0.451-0.368 0.521-0.604 0.069-0.25 0.063-0.486-0.021-0.708-0.083-0.236-0.167-0.41-0.25-0.521l-3-3.75-2.292 1.396v2.354c0 0.375 0.014 0.687 0.042 0.938s0.118 0.465 0.271 0.646c0.153 0.167 0.375 0.292 0.667 0.375 0.306 0.083 0.715 0.125 1.229 0.125v7.729h-17.917v-7.729c1.222 0 2.097-0.16 2.625-0.479 0.528-0.333 0.792-0.951 0.792-1.854v-10.542c0-0.917-0.264-1.535-0.792-1.854-0.528-0.333-1.403-0.5-2.625-0.5v-7.729h17.917v7.729c-0.514 0-0.924 0.042-1.229 0.125-0.292 0.083-0.514 0.215-0.667 0.396-0.153 0.167-0.243 0.382-0.271 0.646-0.028 0.25-0.042 0.563-0.042 0.938v2.979zM76.146 30.933v-7.729c1.222 0 2.097-0.16 2.625-0.479 0.528-0.333 0.792-0.951 0.792-1.854v-10.542c0-0.917-0.264-1.535-0.792-1.854-0.528-0.333-1.403-0.5-2.625-0.5v-7.729h22.063c2.042 0 3.757 0.201 5.146 0.604 1.403 0.403 2.521 0.979 3.354 1.729 0.847 0.75 1.444 1.646 1.792 2.688 0.361 1.042 0.542 2.201 0.542 3.479 0 2.333-0.563 4.201-1.687 5.604-1.126 1.389-2.924 2.139-5.396 2.25v0.25c1.194 0.083 2.181 0.305 2.958 0.667 0.792 0.361 1.41 0.833 1.855 1.417 0.458 0.57 0.778 1.264 0.958 2.083 0.194 0.806 0.292 1.722 0.292 2.75v1.104c0 0.347 0.090 0.653 0.27 0.917 0.181 0.25 0.459 0.375 0.834 0.375 0.402 0 0.687-0.125 0.853-0.375 0.167-0.264 0.251-0.57 0.251-0.917v-5.292h2.396v5.292c0 1-0.153 1.924-0.459 2.771-0.291 0.833-0.778 1.562-1.458 2.187s-1.577 1.104-2.687 1.438c-1.111 0.347-2.48 0.521-4.105 0.521s-2.958-0.181-4-0.542c-1.028-0.347-1.833-0.833-2.417-1.458s-0.993-1.347-1.229-2.167c-0.222-0.833-0.333-1.708-0.333-2.625v-1.604c0-1.111-0.063-2.007-0.188-2.687-0.125-0.695-0.333-1.229-0.625-1.604-0.278-0.389-0.646-0.646-1.104-0.771s-1.014-0.188-1.667-0.188h-0.5v2.979c0 0.736 0.201 1.271 0.604 1.604 0.417 0.319 1.153 0.479 2.208 0.479v7.729h-18.521zM91.854 14.454h1.833c1.167 0 1.965-0.278 2.396-0.833 0.444-0.569 0.667-1.354 0.667-2.354 0-1.167-0.222-2.007-0.667-2.521-0.43-0.514-1.229-0.771-2.396-0.771h-1.833v6.479z"></path>
</symbol>
<symbol id="icon-phone" viewBox="0 0 29 32">
<path fill="#f5d3ab" style="fill: var(--color2, #f5d3ab)" d="M3.052 1.385c-9.601 5.007 5.645 34.643 15.468 30.153 0.161-0.073 2.803-1.372 2.813-1.377l-4.695-9.060c-0.009 0.005-2.631 1.293-2.752 1.348-2.985 1.448-9.064-10.427-6.145-11.992l2.776-1.368-4.656-9.089-2.809 1.385zM20.359 14.82l-3.889-1.16 1.159-3.888c0.995 0.296 1.879 0.973 2.411 1.959 0.533 0.984 0.617 2.093 0.32 3.089zM18.875 5.583c2.068 0.616 3.901 2.021 5.008 4.068 1.108 2.048 1.28 4.351 0.664 6.417l-2.393-0.713c0.433-1.455 0.311-3.075-0.469-4.516-0.777-1.441-2.068-2.429-3.524-2.861l0.715-2.395zM27.78 7.541c-1.688-3.125-4.485-5.268-7.639-6.208l-0.732 2.455c2.527 0.752 4.767 2.469 6.121 4.972 1.352 2.501 1.563 5.316 0.811 7.843l2.453 0.731c0.94-3.155 0.677-6.668-1.015-9.792z"></path>
</symbol>
<symbol id="icon-location" viewBox="0 0 21 32">
<path fill="#f5d3ab" style="fill: var(--color2, #f5d3ab)" d="M0 10.136c0-5.599 5.069-10.136 10.667-10.136 5.599 0 10.667 4.537 10.667 10.136 0 5.051-3.767 10.987-8.942 19.141-0.559 0.881-1.135 1.788-1.724 2.723-0.589-0.935-1.165-1.842-1.724-2.723-5.175-8.154-8.942-14.089-8.942-19.141zM2.667 10.667c0 4.419 3.581 8 8 8s8-3.581 8-8c0-4.419-3.581-8-8-8s-8 3.581-8 8z"></path>
</symbol>
<symbol id="icon-stars" viewBox="0 0 160 32">
<path fill="#f5a623" style="fill: var(--color3, #f5a623)" d="M16 24l-9.405 4.944 1.796-10.472-7.608-7.416 10.515-1.528 4.702-9.528 4.702 9.528 10.515 1.528-7.609 7.416 1.796 10.472-9.405-4.944z"></path>
<path fill="#f5a623" style="fill: var(--color3, #f5a623)" d="M48 24l-9.405 4.944 1.796-10.472-7.609-7.416 10.515-1.528 4.702-9.528 4.702 9.528 10.515 1.528-7.609 7.416 1.796 10.472-9.405-4.944z"></path>
<path fill="#f5a623" style="fill: var(--color3, #f5a623)" d="M80 24l-9.405 4.944 1.796-10.472-7.609-7.416 10.515-1.528 4.702-9.528 4.702 9.528 10.515 1.528-7.609 7.416 1.796 10.472-9.405-4.944z"></path>
<path fill="#f5a623" style="fill: var(--color3, #f5a623)" d="M112 24l-9.405 4.944 1.796-10.472-7.609-7.416 10.515-1.528 4.702-9.528 4.702 9.528 10.515 1.528-7.609 7.416 1.796 10.472-9.405-4.944z"></path>
<path fill="#f5a623" style="fill: var(--color3, #f5a623)" d="M144 24l-9.404 4.944 1.796-10.472-7.609-7.416 10.514-1.528 4.703-9.528 4.703 9.528 10.515 1.528-7.609 7.416 1.796 10.472-9.404-4.944z"></path>
</symbol>
<symbol id="icon-play" viewBox="0 0 26 32">
<path fill="#f5ae5c" style="fill: var(--color4, #f5ae5c)" d="M25.032 15.921l-24.774 15.484v-30.968l24.774 15.484z"></path>
</symbol>
<symbol id="icon-bread" viewBox="0 0 38 32">
<path fill="#fff" style="fill: var(--color1, #fff)" d="M31.942 15.651l-0.263-0.076 1.348-1.355c3.232-3.249 3.232-8.537 0-11.787-2.604-2.618-6.669-3.19-9.887-1.392l-1.81 1.011c-3.246 1.813-6.222 4.071-8.847 6.711-1.974 1.984-3.738 4.186-5.258 6.54l-1.214 0.348c-3.539 1.017-6.011 4.312-6.011 8.014 0 4.596 3.718 8.335 8.289 8.335h21.376c4.57 0 8.289-3.739 8.289-8.335 0-3.702-2.472-6.997-6.011-8.014zM31.764 16.888c-0.077 1.627-0.223 3.265-0.451 4.874-0.013 0.092-0.173 0.092-0.186 0-0.244-1.716-0.397-3.461-0.47-5.2l0.948 0.273c0.030 0.009 0.060 0.019 0.090 0.029l0 0c0.023 0.008 0.046 0.016 0.069 0.023zM23.821 2.074c-0.029 0.014-0.058 0.028-0.086 0.044l-0.861 0.482c1.272 1.178 2.608 2.302 3.989 3.343 0.037 0.028 0.089 0.025 0.122-0.009s0.036-0.086 0.009-0.123c-0.97-1.3-2.018-2.561-3.109-3.768-0.021 0.011-0.042 0.021-0.064 0.032zM21.749 3.231c1.39 1.306 2.859 2.55 4.378 3.696 0.234 0.177 0.512 0.263 0.79 0.263 0.34 0 0.679-0.13 0.934-0.386 0.461-0.463 0.513-1.208 0.122-1.732-0.905-1.213-1.882-2.388-2.892-3.524 2.46-0.759 5.212-0.122 7.080 1.757 2.755 2.77 2.755 7.276 0 10.046l-1.828 1.839-0.381-0.11c-3.415-0.981-6.952-1.488-10.494-1.53-1.113-1.37-2.301-2.699-3.543-3.948l-1.233-1.24c0.606-0.555 1.228-1.090 1.868-1.604l0.231 0.233c1.764 1.774 3.671 3.437 5.667 4.941 0.234 0.177 0.512 0.263 0.79 0.263 0.34 0 0.679-0.13 0.933-0.386 0.461-0.463 0.514-1.208 0.122-1.732-1.445-1.938-3.039-3.789-4.736-5.511 0.714-0.47 1.446-0.914 2.191-1.336zM25.71 15.358c-0.406-0.072-0.815-0.136-1.224-0.195v0.174c0 2.45 0.175 4.922 0.518 7.349 0.013 0.092 0.173 0.092 0.186 0 0.343-2.42 0.518-4.884 0.519-7.327zM18.589 14.771h0c0.129-0.003 0.258-0.006 0.387-0.006s0.258 0.003 0.387 0.006h0c0.075 0.002 0.15 0.003 0.225 0.005v1.792c0 2.45-0.175 4.922-0.519 7.349-0.013 0.092-0.173 0.092-0.186 0-0.344-2.426-0.519-4.898-0.519-7.348v-1.792c0.075-0.001 0.15-0.003 0.225-0.005h0zM23.314 10.815c-1.458-1.955-3.068-3.822-4.786-5.55-0.339 0.238-0.672 0.483-1.003 0.732l0.122 0.122c1.723 1.733 3.586 3.357 5.536 4.828 0.037 0.028 0.090 0.025 0.122-0.009s0.036-0.086 0.009-0.123zM13.79 9.205l1.26 1.267c0.977 0.982 1.909 2.024 2.809 3.088-0.42 0.012-0.839 0.031-1.259 0.056-0.826-0.731-1.639-1.493-2.416-2.274l-1.256-1.263c0.059-0.062 0.117-0.124 0.175-0.187l0.001-0.001 0-0 0-0c0.081-0.087 0.161-0.175 0.245-0.259 0.089-0.089 0.18-0.177 0.271-0.264 0.057-0.054 0.113-0.109 0.169-0.164zM10.168 14.278c-0.103-0.109-0.206-0.217-0.311-0.323l-0.114-0.114c-0.236 0.318-0.47 0.636-0.697 0.96 0.438-0.113 0.878-0.218 1.319-0.316-0.066-0.068-0.132-0.137-0.197-0.206l-0-0zM11.789 14.196c-0.351-0.375-0.705-0.748-1.067-1.112l-0.231-0.233c0.512-0.643 1.046-1.268 1.596-1.877l1.232 1.24c0.519 0.522 1.057 1.032 1.6 1.535-1.049 0.107-2.092 0.257-3.13 0.447zM13.467 15.337v-0.174c-0.409 0.059-0.817 0.123-1.224 0.195 0.001 2.443 0.176 4.908 0.519 7.327 0.013 0.092 0.173 0.092 0.186 0 0.344-2.426 0.519-4.899 0.519-7.349zM7.296 16.563c-0.072 1.739-0.226 3.483-0.47 5.2-0.013 0.092-0.173 0.092-0.186 0-0.228-1.61-0.374-3.247-0.451-4.874 0.023-0.007 0.046-0.015 0.069-0.023h0c0.030-0.010 0.059-0.021 0.090-0.030l0.948-0.273zM8.289 30.769h21.375c3.896 0 7.065-3.187 7.065-7.104 0-2.652-1.492-5.055-3.76-6.27-0.084 1.518-0.231 3.041-0.444 4.541-0.092 0.649-0.653 1.138-1.305 1.138s-1.212-0.489-1.304-1.138c-0.269-1.89-0.433-3.814-0.497-5.726-0.823-0.232-1.653-0.438-2.488-0.614-0.012 2.423-0.186 4.865-0.527 7.264-0.092 0.649-0.653 1.138-1.305 1.138s-1.212-0.489-1.304-1.137c-0.353-2.484-0.532-5.016-0.532-7.524v-0.329c-0.814-0.091-1.63-0.155-2.449-0.193v1.754c0 2.508-0.179 5.039-0.532 7.523-0.092 0.649-0.653 1.138-1.304 1.138s-1.212-0.489-1.304-1.137c-0.353-2.484-0.532-5.016-0.532-7.524v-1.754c-0.818 0.039-1.635 0.102-2.449 0.193v0.329c0 2.508-0.179 5.039-0.532 7.523-0.092 0.649-0.653 1.138-1.304 1.138s-1.212-0.489-1.305-1.138c-0.341-2.399-0.515-4.841-0.527-7.264-0.836 0.177-1.665 0.382-2.488 0.614-0.065 1.912-0.228 3.836-0.497 5.726-0.092 0.649-0.653 1.138-1.304 1.138s-1.212-0.489-1.305-1.137c-0.213-1.501-0.36-3.024-0.444-4.542-2.268 1.214-3.76 3.617-3.76 6.27 0 3.917 3.169 7.104 7.065 7.104z"></path>
</symbol>
<symbol id="icon-cake" viewBox="0 0 30 32">
<path fill="#f5ae5c" style="fill: var(--color4, #f5ae5c)" d="M30.327 19.103c0.002 0.029 0.002 0.058 0 0.087 0.005 0.033 0.007 0.067 0.007 0.1v12.040c0 0.37-0.299 0.669-0.669 0.669h-0.12l-28.996-5.354c-0.322-0.059-0.554-0.342-0.548-0.669v-11.953c0.002-0.085 0.020-0.169 0.053-0.248v-0.074c1.959-3.413 5.569-5.595 10.457-6.331 0.435-0.43 0.981-0.73 1.578-0.863-0.067-1.446 0.127-4.805 3.102-6.418 0.325-0.185 0.738-0.071 0.923 0.254s0.071 0.739-0.254 0.924c-2.293 1.231-2.427 4.016-2.313 5.247 0.487 0.099 0.945 0.31 1.337 0.616 1.029 0.009 2.056 0.085 3.075 0.228 0.134 0.023 0.257 0.086 0.354 0.181l11.894 11.378 0.060 0.080c0.023 0.034 0.043 0.070 0.060 0.107zM14.796 9.659c-0.004-1.065-0.869-1.925-1.932-1.921-1.061 0.004-1.919 0.866-1.919 1.928v0.007c0.004 1.065 0.869 1.925 1.932 1.921s1.922-0.87 1.919-1.934zM9.714 8.863c-0.069 0.26-0.105 0.528-0.107 0.796-0.053 1.803 1.364 3.308 3.166 3.36s3.304-1.366 3.357-3.169c0.014-0.482-0.079-0.961-0.271-1.403 0.756 0.040 1.337 0.107 1.605 0.141l10.149 9.711-25.794-4.765c1.651-2.383 4.312-3.942 7.896-4.672zM1.357 22.202v3.213l27.666 5.113-0.007-3.34-27.659-4.986zM1.357 20.843v-2.008l27.659 4.986 0.007 2.021-27.666-5zM1.357 14.813v2.677l27.666 5.006-0.013-2.55-7.134-1.339-20.519-3.795z"></path>
</symbol>
<symbol id="icon-cofee_crous" viewBox="0 0 38 32">
<path fill="#f5ae5c" style="fill: var(--color4, #f5ae5c)" d="M14.38 7.529c0.345 0 0.625-0.281 0.625-0.627-0.004-0.443 0.172-0.868 0.488-1.176 1.016-1.108 1.016-2.813 0-3.922-0.316-0.309-0.492-0.734-0.488-1.176 0-0.347-0.28-0.627-0.625-0.627s-0.625 0.281-0.625 0.627c-0.006 0.727 0.267 1.429 0.762 1.961 0.313 0.311 0.488 0.735 0.488 1.176s-0.176 0.865-0.488 1.176c-0.495 0.532-0.768 1.233-0.762 1.961 0 0.347 0.28 0.627 0.625 0.627zM31.827 26.98h4.217c0.361-0.031 0.719 0.084 0.995 0.32s0.447 0.572 0.474 0.935v1.255c0 1.407-1.387 2.51-3.157 2.51h-28.698c-1.771 0-3.157-1.102-3.157-2.51v-1.255c0.027-0.363 0.198-0.699 0.474-0.935s0.634-0.351 0.995-0.32h5.197c-1.196-0.844-2.091-2.051-2.552-3.443-0.694 0.199-1.411 0.302-2.133 0.306-2.723 0-4.483-2.347-4.483-5.98 0-1.625 0-6.569 4.483-6.569 0.597 0 1.192 0.076 1.769 0.227v-0.855c0-0.693 0.56-1.255 1.25-1.255h15.005c0.691 0 1.25 0.562 1.25 1.255v7.186c0.16 0.071 0.324 0.133 0.491 0.184 0.118-0.287 0.252-0.567 0.401-0.839 0.132-0.237 0.342-0.42 0.595-0.518l3.211-1.231c0.258-0.098 0.543-0.099 0.802-0.003 0.272 0.107 0.538 0.23 0.796 0.368 0.217-0.32 0.39-0.667 0.515-1.033 0.195-0.587 0.68-1.031 1.28-1.171 0.019-0.299 0.028-0.598 0.028-0.891v-0c0.005-1.224 0.011-2.613 1.559-3.204 0.393-0.157 0.836-0.126 1.203 0.085 0.289 0.161 1.142 0.649 1.776 3.702 0.557 0.193 0.954 0.692 1.018 1.281 0.158 1.39 0.092 2.796-0.195 4.165-0.34 1.263-0.893 2.459-1.635 3.534 0.058 0.123 0.109 0.236 0.15 0.33 0.157 0.355 0.131 0.764-0.068 1.097-0.935 1.45-2.278 2.588-3.858 3.271zM34.027 10.691c-0.044-0.030-0.101-0.033-0.148-0.008-0.684 0.262-0.747 0.737-0.75 2.037-0.001 0.213-0.002 0.441-0.011 0.675 0.793-0.103 1.475-0.149 2.001-0.171-0.472-2.078-0.985-2.473-1.092-2.533zM31.761 15.162c0.064-0.187 0.225-0.323 0.419-0.354 0.080-0.017 0.16-0.030 0.244-0.044l0-0 0-0 0.001-0c0.036-0.006 0.074-0.012 0.112-0.019 1.092-0.185 2.197-0.282 3.304-0.29h0.041c0.153-0.010 0.288 0.099 0.309 0.251 0.144 1.249 0.088 2.513-0.166 3.744-0.236 0.895-0.602 1.751-1.086 2.539-0.947-1.756-2.248-3.294-3.82-4.518 0.27-0.406 0.486-0.846 0.642-1.309zM28.862 16.634l-3.137 1.202c-1.556 2.835-1.037 6.741-0.739 8.295 0.048 0.253 0.096 0.464 0.132 0.618 0.416 0.134 0.848 0.212 1.284 0.232h0.825c1.052-0.076 2.086-0.312 3.067-0.7 2.861-1.096 3.974-2.61 4.32-3.209-0.375-0.808-2.405-5.117-5.752-6.438zM21.92 26.012c0.616 0.3 1.258 0.546 1.916 0.735 0.012 0.058 0.024 0.111 0.035 0.16l0 0c0.006 0.025 0.011 0.049 0.016 0.073h-3.068c0.4-0.283 0.768-0.607 1.1-0.968zM21.245 24.129c0.712 0.529 1.504 0.941 2.346 1.22-0.323-2.040-0.238-4.125 0.25-6.132-0.444-0.132-0.868-0.325-1.26-0.574-0.15-0.089-0.336-0.084-0.482 0.011-0.085 0.050-0.16 0.098-0.231 0.144-0.030 0.019-0.059 0.038-0.088 0.056-0.966 0.604-1.883 1.282-2.745 2.027-0.007 0.008-0.015 0.015-0.023 0.023-0.14 0.107-0.187 0.298-0.113 0.458 0.621 1.049 1.414 1.984 2.346 2.767zM18.179 16.77c0.020-0.066 0.071-0.119 0.136-0.14 0.663-0.251 0.966 0.049 1.738 1.042 0.133 0.17 0.274 0.352 0.427 0.535-0.681 0.459-1.242 0.884-1.666 1.227-0.65-1.454-0.767-2.323-0.635-2.664zM4.483 20.078c0.61-0.009 1.213-0.143 1.769-0.393v-4.046c-0.501-0.4-1.129-0.607-1.769-0.58-0.309 0-0.732 0-0.732 2.805 0 1.074 0.256 2.215 0.732 2.215zM1.25 17.864c0-2.476 0.368-5.315 3.232-5.315 0.601-0.003 1.198 0.090 1.769 0.277v1.348c-0.556-0.252-1.16-0.378-1.769-0.37-1.831 0-1.982 1.921-1.982 4.060 0 2.173 0.741 3.47 1.982 3.47 0.603-0.006 1.201-0.112 1.769-0.314v0.314c0.003 0.328 0.029 0.655 0.079 0.979-0.6 0.178-1.222 0.271-1.848 0.275-2.024 0-3.232-1.766-3.232-4.724zM7.503 21.333c-0.001 0.428 0.048 0.854 0.146 1.27v-0.002c0.578 2.569 2.857 4.39 5.481 4.379h3.751c1.473 0.002 2.887-0.58 3.934-1.62l-0.020-0.014c-0.106-0.073-0.213-0.146-0.316-0.226-1.050-0.875-1.944-1.923-2.644-3.099-0.31-0.517-0.299-1.166 0.028-1.673-0.892-1.865-1.175-3.192-0.85-4.035 0.148-0.397 0.461-0.71 0.857-0.856 1.578-0.603 2.457 0.528 3.165 1.438l0.004 0.005c0.166 0.213 0.34 0.427 0.52 0.634 0.291-0.154 0.621-0.219 0.948-0.188v-6.679h-15.005v10.667zM36.263 29.49c0 0.68-0.875 1.255-1.907 1.255h-28.698c-1.032 0-1.907-0.575-1.907-1.255v-1.198c0.066-0.040 0.142-0.060 0.219-0.057h32.074c0.077-0.003 0.153 0.017 0.219 0.057v1.198zM10.004 6.902c0 0.347 0.28 0.627 0.625 0.627s0.625-0.281 0.625-0.627c-0.004-0.443 0.172-0.868 0.488-1.176 1.016-1.108 1.016-2.813 0-3.922-0.316-0.309-0.492-0.734-0.488-1.176 0-0.347-0.28-0.627-0.625-0.627s-0.625 0.281-0.625 0.627c-0.006 0.727 0.267 1.429 0.762 1.961 0.313 0.311 0.488 0.735 0.488 1.176s-0.176 0.865-0.488 1.176c-0.495 0.532-0.768 1.233-0.762 1.961zM18.132 7.529c-0.345 0-0.625-0.281-0.625-0.627-0.006-0.727 0.267-1.429 0.762-1.961 0.313-0.311 0.488-0.735 0.488-1.176s-0.176-0.865-0.488-1.176c-0.495-0.532-0.768-1.233-0.762-1.961 0-0.347 0.28-0.627 0.625-0.627s0.625 0.281 0.625 0.627c-0.004 0.443 0.172 0.868 0.488 1.176 1.016 1.108 1.016 2.813 0 3.922-0.316 0.309-0.492 0.734-0.488 1.176 0 0.347-0.28 0.627-0.625 0.627z"></path>
</symbol>
<symbol id="icon-path_down" viewBox="0 0 48 32">
<path fill="#f5d3ab" style="fill: var(--color2, #f5d3ab)" d="M42 0l6 6.522-24 25.478-24-25.478 6-6.522 18 19.2 18-19.2z"></path>
</symbol>
<symbol id="icon-path_up" viewBox="0 0 48 32">
<path fill="#f5d3ab" style="fill: var(--color2, #f5d3ab)" d="M6 32l-6-6.522 24-25.478 24 25.478-6 6.522-18-19.2-18 19.2z"></path>
</symbol>
</defs>
</svg>
